<svg width="48" height="48" viewBox="0 0 48 48" fill="none" xmlns="http://www.w3.org/2000/svg">
<g clip-path="url(#clip0_869_3486)">
<path d="M23.9987 46C20.993 45.9997 18.0567 45.0965 15.5705 43.4074C13.0843 41.7183 11.1629 39.3213 10.0554 36.5271C8.9479 33.7328 8.70538 30.6704 9.35929 27.7367C10.0132 24.803 11.5334 22.1334 13.7227 20.074C16.4067 17.548 22.9987 13 21.9987 3C33.9987 11 39.9987 19 27.9987 31C29.9987 31 32.9987 31 37.9987 26.06C38.5387 27.606 38.9987 29.268 38.9987 31C38.9987 34.9782 37.4184 38.7936 34.6053 41.6066C31.7923 44.4196 27.977 46 23.9987 46Z" fill="#549825"/>
</g>
<defs>
<clipPath id="clip0_869_3486">
<rect width="48" height="48" fill="white"/>
</clipPath>
</defs>
</svg>
